<?xml version="1.0" standalone="no"?><!DOCTYPE svg PUBLIC "-//W3C//DTD SVG 1.1//EN" "http://www.w3.org/Graphics/SVG/1.1/DTD/svg11.dtd"><svg t="1674460336611" class="icon" viewBox="0 0 1024 1024" version="1.1" xmlns="http://www.w3.org/2000/svg" p-id="7732" xmlns:xlink="http://www.w3.org/1999/xlink" width="24" height="24"><path d="M513 62.33c-247.71 0-448.51 200.81-448.51 448.51S265.29 959.35 513 959.35s448.51-200.81 448.51-448.51S760.71 62.33 513 62.33z m0 837.85c-215.02 0-389.33-174.31-389.33-389.33S297.98 121.51 513 121.51s389.33 174.31 389.33 389.33S728.02 900.18 513 900.18z" fill="#333333" p-id="7733"></path><path d="M507.21 238.44l66.23 194.19 200.09 1.52L614.37 558.6l64.29 186.49-171.45-108.63-171.46 108.63 64.3-186.49-165.16-124.45 206.09-1.52z" fill="#333333" p-id="7734"></path></svg>